<svg width="1119" height="1296" viewBox="0 0 1119 1296" fill="none" xmlns="http://www.w3.org/2000/svg">
<path d="M1120 589C1120 824.921 1120 1060.84 1120 1297C936.307 1297 752.613 1297 568.46 1296.53C568 1177.81 568 1059.56 568 941.951C550.742 939.908 534.214 938.396 517.838 935.889C500.871 933.292 483.816 930.643 467.229 926.356C447.003 921.128 427.176 914.32 407.268 907.915C385.095 900.782 364.125 890.853 343.611 879.893C324.836 869.863 306.913 858.564 289.568 846.187C265.013 828.665 241.844 809.666 221.791 787.06C210.982 774.875 199.934 762.861 189.81 750.12C173.512 729.61 159.272 707.628 147.249 684.35C140.105 670.518 133.4 656.363 127.813 641.847C120.505 622.857 113.996 603.518 108.066 584.048C101.914 563.846 97.9042 543.109 95.9448 522.025C94.6664 508.269 92.387 494.531 92.2249 480.765C91.999 461.586 92.874 442.358 94.1541 423.209C95.081 409.343 96.6589 395.422 99.3184 381.793C103.873 358.455 109.726 335.437 117.888 312.979C126.299 289.838 135.593 267.143 148.215 246.018C158.186 229.329 168.724 212.932 179.847 196.989C196.665 172.884 215.801 150.712 238.193 131.504C247.909 123.169 257.464 114.642 267.261 106.404C287.193 89.642 308.725 75.0864 331.417 62.4336C350.138 51.9949 369.256 42.1387 388.776 33.3007C406.451 25.2978 424.844 18.8483 443.045 12.0485C453.356 8.19668 463.917 5.01808 475.771 1.06822C473.433 1.06822 472.558 0.875697 471.805 1.09702C460.219 4.50197 448.578 7.74085 437.088 11.4487C403.721 22.2166 370.754 34.1123 339.196 49.48C318.287 59.6619 297.288 69.8269 277.235 81.5472C258.272 92.6295 239.98 105.043 222.331 118.137C204.061 131.692 186.263 146.052 169.479 161.395C154.589 175.006 140.873 190.011 127.565 205.212C115.386 219.123 103.649 233.569 93.141 248.764C76.1311 273.361 60.6954 299 48.7791 326.564C43.1297 339.631 36.9155 352.509 32.1732 365.904C20.0335 400.193 10.2173 435.151 6.03566 471.417C3.96524 489.373 2.66723 507.418 0.971302 525.418C0.856951 526.632 0.333287 527.807 -3.8147e-06 529C1.85303e-07 352.7 1.78814e-07 176.401 1.78814e-07 0.050415C373.229 0.050415 746.457 0.050415 1120 0.050415C1120 185.027 1120 370.054 1119.61 555.339C1118.82 547.845 1118.68 540.067 1117.94 532.345C1116.47 516.868 1115.23 501.337 1112.86 485.986C1110.31 469.469 1107.42 452.913 1103.17 436.775C1097.56 415.511 1091.02 394.447 1083.86 373.647C1075.79 350.186 1065.52 327.612 1054 305.587C1040.74 280.212 1026.19 255.594 1008.8 232.899C993.969 213.55 978.422 194.636 961.85 176.776C947.945 161.79 932.434 148.224 917.006 134.748C905.976 125.114 894.171 116.3 882.248 107.769C855.766 88.8213 827.887 72.1623 798.018 59.0679C783.484 52.6962 768.825 46.5397 753.944 41.0418C728.82 31.7599 703.136 24.2197 676.649 19.9444C655.897 16.5946 635.041 13.8777 614.207 11.0531C608.996 10.3466 603.697 10.0727 598.433 10.0099C586.07 9.86241 573.703 9.96267 560.987 9.96267C560.987 21.4534 560.986 33.415 560.987 45.3766C560.991 91.7049 560.977 138.033 561.079 184.361C561.083 185.922 562.258 187.48 562.936 189.503C562.99 287.604 562.995 385.241 562.995 482.878C562.995 484.209 562.921 485.54 562.422 486.9C555.487 486.934 549.011 486.874 542.538 486.961C534.496 487.07 529.316 490.451 528.425 497.47C527.596 503.999 527.69 510.739 528.231 517.317C528.608 521.89 531.619 525.402 536.316 526.697C538.243 527.228 540.355 527.086 541.901 527.212C539.276 535.77 538.355 543.901 542.349 551.933C537.395 551.94 532.898 551.936 528.4 551.944C495.921 552.003 463.441 552.064 430.688 552.074C430.059 552.17 429.704 552.317 429.35 552.463C429.509 552.673 429.668 552.883 429.877 553.413C429.976 554.164 430.025 554.593 430.081 555.296C430.378 555.778 430.667 555.987 430.969 556.57C433.625 563.76 436.276 570.572 438.911 577.39C447.165 598.746 455.345 620.131 463.68 641.455C473.683 667.045 483.906 692.549 493.866 718.155C504.472 745.424 514.803 772.8 525.404 800.071C534.118 822.488 543.038 844.825 551.893 867.186C557.549 881.472 563.254 895.738 569.026 910.355C569.575 911.705 570.034 912.713 570.72 914.217C614.699 793.342 658.499 672.959 702.524 551.957C664.011 551.957 626.309 551.957 588.888 551.957C592.554 543.599 591.142 535.381 589.826 527.167C598.692 527.333 604.154 521.835 603.078 513.466C602.614 509.859 603.054 506.143 602.981 502.479C602.933 500.014 603.185 497.401 602.466 495.118C600.66 489.381 596.759 487.078 589.499 486.999C582.406 486.921 575.311 486.982 568.001 486.982C568.001 485.501 568.001 484.685 568.001 483.869C568.001 387.227 567.997 290.585 568.04 193.944C568.04 192.578 568.638 191.212 569.416 189.914C573.97 190.319 578.076 190.557 582.158 191.014C593.693 192.309 605.35 193.009 616.719 195.194C636.299 198.957 655.768 203.375 675.157 208.047C706.003 215.478 735.431 226.999 764.016 240.601C786.65 251.371 808.534 263.641 828.741 278.505C845.156 290.58 861.619 302.801 876.621 316.532C896.458 334.689 915.586 353.789 931.235 375.863C942.578 391.862 954.22 407.781 963.953 424.754C974.671 443.447 984.417 462.869 992.63 482.78C1000.7 502.337 1007.4 522.627 1012.69 543.113C1017.8 562.894 1020.99 583.247 1023.82 603.517C1026.14 620.086 1027.32 636.883 1027.79 653.613C1028.16 666.772 1026.85 679.994 1025.95 693.166C1025.21 703.965 1024.75 714.873 1022.8 725.481C1019.43 743.822 1015.28 762.033 1010.95 780.179C1004.91 805.489 995.253 829.555 984.362 853.105C973.835 875.868 961.168 897.441 946.99 918.134C931.672 940.492 914.385 961.255 895.6 980.728C886.888 989.759 877.591 998.312 867.932 1006.32C852.105 1019.45 836.357 1032.81 819.504 1044.53C794.422 1061.98 767.849 1077.02 740.126 1090.09C711.767 1103.45 682.679 1114.75 652.78 1124.06C647.863 1125.59 643.01 1127.33 637.667 1129.13C638.511 1129.74 638.682 1129.95 638.776 1129.92C664.216 1121.77 689.93 1114.38 715.003 1105.22C737.811 1096.9 760.074 1087 782.285 1077.14C795.374 1071.33 808.061 1064.55 820.625 1057.65C833.125 1050.78 845.625 1043.79 857.445 1035.84C875.387 1023.78 893.056 1011.25 910.242 998.139C923.516 988.011 936.298 977.137 948.513 965.752C960.53 954.551 971.768 942.485 982.948 930.427C991.416 921.294 999.669 911.898 1007.29 902.057C1026 877.902 1042.81 852.451 1057.17 825.447C1069.61 802.053 1080.32 777.892 1089.09 752.868C1101.66 717.037 1110.92 680.43 1114.95 642.629C1116.7 626.131 1117.66 609.549 1119.03 593.01C1119.14 591.656 1119.67 590.336 1120 589Z" fill="white"/>
<path d="M563 1297C375.394 1297 187.789 1297 0 1297C0 1054.97 2.98023e-08 812.946 0.360859 570.693C1.81131 584.77 2.41294 599.131 4.1133 613.361C6.26611 631.378 8.13387 649.565 12.2604 667.177C17.9077 691.281 24.8382 715.153 32.59 738.673C38.7659 757.411 46.1848 775.848 54.4895 793.752C69.4753 826.059 86.5901 857.308 108.079 885.826C123.056 905.702 138.497 925.294 154.816 944.069C165.549 956.418 177.813 967.543 190.118 978.392C204.596 991.157 219.65 1003.3 234.837 1015.22C254.36 1030.55 275.421 1043.67 297.463 1054.99C316.159 1064.59 335.082 1074.01 354.655 1081.57C377.634 1090.45 401.108 1098.45 424.954 1104.54C447.365 1110.26 470.45 1113.63 493.405 1116.83C510.479 1119.21 527.82 1119.67 545.04 1121C550.911 1121.46 556.779 1121.94 563 1122.44C563 1180.78 563 1238.89 563 1297Z" fill="white"/>
<path d="M563.417 1297C563 1238.89 563 1180.78 563 1122.44C556.779 1121.94 550.911 1121.46 545.04 1121C527.82 1119.67 510.479 1119.21 493.405 1116.83C470.45 1113.63 447.365 1110.26 424.954 1104.54C401.108 1098.45 377.634 1090.45 354.655 1081.57C335.082 1074.01 316.159 1064.59 297.463 1054.99C275.421 1043.67 254.36 1030.55 234.837 1015.22C219.65 1003.3 204.596 991.157 190.118 978.392C177.813 967.543 165.549 956.418 154.816 944.069C138.497 925.294 123.056 905.702 108.079 885.826C86.5901 857.308 69.4753 826.059 54.4895 793.752C46.1848 775.848 38.7659 757.411 32.59 738.673C24.8382 715.153 17.9077 691.281 12.2604 667.177C8.13387 649.565 6.26611 631.378 4.1133 613.361C2.41294 599.131 1.81131 584.77 0.360859 570.233C2.08616e-07 556.646 1.85303e-07 543.292 -3.8147e-06 529.469C0.333287 527.807 0.856951 526.632 0.971302 525.418C2.66723 507.418 3.96524 489.373 6.03566 471.417C10.2173 435.151 20.0335 400.193 32.1732 365.904C36.9155 352.509 43.1297 339.631 48.7791 326.564C60.6954 299 76.1311 273.361 93.141 248.764C103.649 233.569 115.386 219.123 127.565 205.212C140.873 190.011 154.589 175.006 169.479 161.395C186.263 146.052 204.061 131.692 222.331 118.137C239.98 105.043 258.272 92.6295 277.235 81.5471C297.288 69.8269 318.287 59.6619 339.196 49.48C370.754 34.1123 403.721 22.2166 437.088 11.4487C448.578 7.74085 460.219 4.50197 471.805 1.09702C472.558 0.875694 473.433 1.06821 475.771 1.06821C463.917 5.01808 453.356 8.19668 443.045 12.0485C424.844 18.8483 406.451 25.2978 388.776 33.3007C369.256 42.1387 350.138 51.9949 331.417 62.4336C308.725 75.0864 287.193 89.642 267.261 106.404C257.464 114.642 247.909 123.169 238.193 131.504C215.801 150.712 196.665 172.884 179.847 196.989C168.724 212.932 158.186 229.329 148.215 246.018C135.593 267.143 126.299 289.838 117.888 312.979C109.726 335.437 103.873 358.455 99.3184 381.793C96.6589 395.422 95.081 409.343 94.1541 423.209C92.874 442.358 91.999 461.586 92.2249 480.765C92.387 494.531 94.6664 508.269 95.9448 522.025C97.9042 543.109 101.914 563.846 108.066 584.048C113.996 603.518 120.505 622.857 127.813 641.847C133.4 656.363 140.105 670.518 147.249 684.35C159.272 707.628 173.512 729.61 189.81 750.12C199.934 762.861 210.982 774.875 221.791 787.06C241.844 809.666 265.013 828.665 289.568 846.187C306.913 858.564 324.836 869.863 343.611 879.893C364.125 890.853 385.095 900.782 407.268 907.915C427.176 914.32 447.003 921.128 467.229 926.356C483.816 930.643 500.871 933.292 517.838 935.889C534.214 938.396 550.742 939.908 568 941.951C568 1059.56 568 1177.81 568 1296.53C566.611 1297 565.222 1297 563.417 1297Z" fill="#52B7D0"/>
<path d="M1120 588.531C1119.67 590.336 1119.14 591.656 1119.03 593.01C1117.66 609.549 1116.7 626.131 1114.95 642.629C1110.92 680.43 1101.66 717.037 1089.09 752.868C1080.32 777.892 1069.61 802.053 1057.17 825.447C1042.81 852.451 1026 877.902 1007.29 902.057C999.669 911.898 991.416 921.294 982.948 930.427C971.768 942.485 960.53 954.551 948.513 965.752C936.298 977.137 923.516 988.011 910.242 998.139C893.056 1011.25 875.387 1023.78 857.445 1035.84C845.625 1043.79 833.125 1050.78 820.625 1057.65C808.061 1064.55 795.374 1071.33 782.285 1077.14C760.074 1087 737.811 1096.9 715.003 1105.22C689.93 1114.38 664.216 1121.77 638.776 1129.92C638.682 1129.95 638.511 1129.74 637.667 1129.13C643.01 1127.33 647.863 1125.59 652.78 1124.06C682.679 1114.75 711.767 1103.46 740.126 1090.09C767.849 1077.02 794.422 1061.98 819.504 1044.53C836.357 1032.81 852.105 1019.45 867.932 1006.32C877.592 998.312 886.888 989.759 895.6 980.728C914.385 961.255 931.672 940.492 946.99 918.134C961.168 897.441 973.835 875.868 984.362 853.105C995.253 829.555 1004.91 805.489 1010.95 780.179C1015.28 762.033 1019.43 743.822 1022.8 725.481C1024.75 714.873 1025.21 703.965 1025.95 693.166C1026.85 679.994 1028.16 666.772 1027.79 653.613C1027.32 636.883 1026.14 620.086 1023.82 603.517C1020.99 583.247 1017.8 562.894 1012.69 543.113C1007.4 522.627 1000.7 502.337 992.63 482.78C984.417 462.869 974.671 443.447 963.953 424.754C954.22 407.781 942.578 391.862 931.235 375.863C915.586 353.789 896.458 334.689 876.621 316.532C861.619 302.801 845.156 290.58 828.741 278.505C808.534 263.641 786.65 251.371 764.016 240.601C735.431 226.999 706.003 215.478 675.157 208.047C655.768 203.375 636.3 198.957 616.719 195.194C605.35 193.009 593.693 192.309 582.158 191.014C578.076 190.557 573.97 190.319 569.131 189.657C566.553 189.236 564.72 189.137 562.886 189.039C562.258 187.48 561.083 185.922 561.079 184.361C560.977 138.033 560.991 91.7049 560.987 45.3767C560.986 33.415 560.987 21.4534 560.987 9.96267C573.703 9.96267 586.07 9.86241 598.433 10.0099C603.697 10.0727 608.996 10.3466 614.207 11.0531C635.041 13.8777 655.897 16.5946 676.649 19.9444C703.136 24.2197 728.82 31.7599 753.944 41.0418C768.825 46.5397 783.484 52.6962 798.018 59.0679C827.887 72.1623 855.767 88.8213 882.248 107.769C894.171 116.3 905.976 125.114 917.006 134.748C932.434 148.224 947.945 161.79 961.85 176.776C978.422 194.636 993.969 213.55 1008.8 232.899C1026.19 255.594 1040.74 280.212 1054 305.587C1065.52 327.612 1075.79 350.186 1083.86 373.647C1091.02 394.447 1097.56 415.511 1103.17 436.775C1107.42 452.913 1110.31 469.469 1112.86 485.986C1115.23 501.337 1116.47 516.868 1117.94 532.345C1118.68 540.067 1118.82 547.845 1119.61 555.799C1120 566.688 1120 577.375 1120 588.531Z" fill="#098FB5"/>
<path d="M562.936 189.503C564.72 189.137 566.553 189.236 568.672 189.59C568.638 191.212 568.04 192.578 568.04 193.944C567.997 290.585 568.001 387.227 568.001 483.869C568.001 484.685 568.001 485.501 568.001 486.982C575.311 486.982 582.406 486.921 589.499 486.999C596.759 487.078 600.66 489.381 602.466 495.118C603.185 497.401 602.933 500.014 602.981 502.479C603.054 506.143 602.614 509.859 603.078 513.466C604.154 521.835 598.692 527.333 589.826 527.167C591.142 535.381 592.554 543.599 588.888 551.957C626.309 551.957 664.011 551.957 702.524 551.957C658.499 672.959 614.699 793.342 570.72 914.217C570.034 912.713 569.575 911.705 569.375 910.107C569.779 907.709 570.064 905.899 570.044 904.093C569.738 877.458 569.411 850.824 569.05 824.19C568.757 802.554 568.386 780.92 568.095 759.284C567.73 732.15 567.364 705.016 567.085 677.881C566.669 637.416 566.33 596.951 565.946 556.485C565.935 555.324 565.785 554.164 565.786 552.539C565.899 532.135 566.005 512.194 565.82 492.256C565.804 490.452 563.906 488.665 562.882 486.871C562.921 485.54 562.995 484.209 562.995 482.878C562.995 385.241 562.99 287.604 562.936 189.503Z" fill="#008FB4"/>
<path d="M565.7 553.003C565.785 554.164 565.935 555.324 565.946 556.485C566.33 596.951 566.669 637.416 567.085 677.881C567.364 705.016 567.73 732.15 568.095 759.284C568.386 780.92 568.757 802.554 569.05 824.19C569.411 850.824 569.738 877.458 570.044 904.093C570.064 905.899 569.779 907.709 569.286 909.765C563.254 895.738 557.549 881.472 551.893 867.186C543.038 844.825 534.118 822.488 525.404 800.071C514.803 772.8 504.472 745.424 493.866 718.155C483.906 692.549 473.683 667.045 463.68 641.455C455.345 620.131 447.165 598.746 438.911 577.39C436.276 570.572 433.625 563.76 430.9 556.321C430.57 555.473 430.321 555.248 430.073 555.023C430.025 554.593 429.976 554.164 430.113 553.31C430.52 552.632 430.741 552.378 430.962 552.124C463.442 552.064 495.921 552.003 528.4 551.944C532.898 551.936 537.395 551.94 542.641 551.954C543.585 551.979 543.78 551.987 544.271 552.294C550.711 552.728 556.856 552.864 563.34 553C564.354 553.001 565.027 553.002 565.7 553.003Z" fill="#52B6CF"/>
<path d="M543.975 551.996C543.78 551.987 543.585 551.979 543.098 551.95C538.355 543.901 539.277 535.77 541.901 527.212C540.355 527.086 538.243 527.228 536.316 526.697C531.619 525.402 528.608 521.89 528.231 517.317C527.69 510.739 527.596 503.999 528.425 497.47C529.316 490.451 534.496 487.07 542.538 486.961C549.011 486.874 555.487 486.934 562.422 486.9C563.906 488.665 565.804 490.452 565.82 492.256C566.005 512.194 565.899 532.135 565.786 552.539C565.027 553.002 564.354 553.001 563.047 552.703C556.267 552.27 550.121 552.133 543.975 551.996Z" fill="#53B6CF"/>
<path d="M430.688 552.074C430.741 552.378 430.52 552.632 430.063 552.989C429.668 552.883 429.509 552.673 429.35 552.463C429.704 552.317 430.059 552.17 430.688 552.074Z" fill="#3DACC8"/>
<path d="M430.081 555.296C430.321 555.248 430.57 555.473 430.887 555.947C430.667 555.987 430.378 555.778 430.081 555.296Z" fill="#3DACC8"/>
<path d="M544.271 552.294C550.121 552.133 556.267 552.27 562.706 552.703C556.856 552.864 550.711 552.728 544.271 552.294Z" fill="#3DACC8"/>
</svg>
